# xmcd CD database file
#
# Track frame offsets:
#	150
#	12105
#	53757
#	76463
#	108564
#	120117
#	143129
#	162791
#	182137
#	201567
#	229771
#	249055
#	275126
#	292115
#	303902
#	314718
#	324617
#
# Disc length: 4619 seconds
#
# Revision: 1
# Processed by: cddbd v1.5.2PL0 Copyright (c) Steve Scherf et al.
# Submitted via: CDex 1.51
#
DISCID=f1120911
DTITLE=Various Artist - Hot Salsa CD2
DYEAR=2007
DGENRE=Salsa
TTITLE0=Martin Haene - Carnival!
TTITLE1=Darren Kramer Organization - Miami Mambo
TTITLE2=Alma Y Amor - La Puerta
TTITLE3=Darren Kramer - L.A. Cha Cha
TTITLE4=Los Dos - Mi Isla
TTITLE5=Frank Villafane - Nostalgia De Mi Tierra
TTITLE6=The Nate Aronow Nextet - Fiesta De Rio
TTITLE7=Frank Unzueta - For Always
TTITLE8=Los Santos - Mambo De Los Angeles
TTITLE9=Wistaria - Noche De Baja
TTITLE10=Mambo Zombies - Mambo Inn
TTITLE11=Dez Desormeaux and Mambo Zombies - Tu No Me Quieres
TTITLE12=Brave Nu Whirled - Del Rio
TTITLE13=Mister M. - Latin Fiesta
TTITLE14=Martytone - In The Caribbean
TTITLE15=MaHa - Salsa Salsa!
TTITLE16=Patrick Yandall - Miami Nights
EXTD=YEAR: 2007
EXTT0=
EXTT1=
EXTT2=
EXTT3=
EXTT4=
EXTT5=
EXTT6=
EXTT7=
EXTT8=
EXTT9=
EXTT10=
EXTT11=
EXTT12=
EXTT13=
EXTT14=
EXTT15=
EXTT16=
PLAYORDER=
